<?xml version="1.0" standalone="no"?>
<!DOCTYPE svg PUBLIC "-//W3C//DTD SVG 20010904//EN"
 "http://www.w3.org/TR/2001/REC-SVG-20010904/DTD/svg10.dtd">
<svg version="1.0" xmlns="http://www.w3.org/2000/svg"
 width="1200.000000pt" height="935.000000pt" viewBox="0 0 1200.000000 935.000000"
 preserveAspectRatio="xMidYMid meet">
<metadata>
Created by potrace 1.16, written by Peter Selinger 2001-2019
</metadata>
<g transform="translate(0.000000,935.000000) scale(0.100000,-0.100000)"
fill="#000000" stroke="none">
<path d="M2645 8253 c25 -101 130 -312 227 -458 258 -384 736 -831 1250 -1169
105 -69 116 -79 103 -93 -22 -22 -39 -58 -68 -148 -59 -182 -80 -285 -82 -410
-3 -140 -22 -227 -116 -511 -53 -164 -59 -190 -59 -266 0 -48 7 -108 16 -139
33 -114 159 -303 326 -490 l86 -95 -25 -40 c-79 -128 -150 -295 -189 -446 -32
-125 -44 -364 -25 -499 27 -181 102 -372 206 -520 30 -43 55 -81 55 -83 0 -3
-35 -86 -79 -183 -108 -245 -132 -357 -111 -515 24 -177 124 -346 259 -440 27
-19 31 -9 -47 -112 -115 -151 -151 -333 -76 -382 16 -11 35 -14 56 -10 64 13
203 103 413 267 l100 78 205 5 c231 6 429 21 510 38 66 14 102 13 240 -7 192
-29 695 -118 703 -125 4 -3 -9 -41 -29 -84 -46 -100 -62 -175 -46 -211 15 -32
64 -54 140 -61 51 -5 63 -2 107 24 66 40 214 165 351 299 61 59 142 129 180
155 325 222 512 553 532 942 l7 129 265 94 c146 51 268 94 272 95 4 2 -25 83
-63 181 -38 98 -69 182 -69 185 0 4 111 52 245 107 142 58 245 105 245 112 0
7 -38 143 -84 301 -47 158 -82 290 -78 293 6 5 150 56 500 176 43 15 72 30 69
37 -12 32 -217 759 -215 761 2 1 68 21 148 45 661 191 1239 378 1360 438 73
36 75 38 72 71 -5 62 -90 246 -375 811 -153 305 -281 557 -283 559 -23 25
-766 -433 -1917 -1182 l-117 -77 405 -607 c222 -334 401 -611 397 -614 -4 -4
-131 -54 -282 -110 -151 -56 -279 -105 -283 -109 -5 -5 50 -151 123 -325 72
-175 130 -318 128 -320 -2 -1 -85 -44 -185 -96 -101 -52 -183 -99 -183 -105 0
-6 38 -92 85 -191 47 -99 85 -183 85 -186 0 -9 -262 -148 -268 -142 -14 13
-128 550 -286 1345 -205 1030 -204 1021 -210 1235 -8 316 -79 646 -195 917
-11 26 -17 49 -13 52 4 2 63 21 132 41 597 178 1134 450 1500 760 153 130 360
362 360 403 0 11 -46 11 -335 -3 -392 -19 -807 -91 -1147 -201 -368 -119 -712
-306 -907 -493 -30 -28 -59 -50 -65 -47 -373 154 -653 221 -961 230 -296 9
-550 -39 -864 -162 -86 -34 -146 -52 -148 -46 -12 36 -273 326 -443 493 -343
336 -836 626 -1379 812 -79 27 -148 49 -153 49 -6 0 -7 -12 -3 -27z"/>
</g>
</svg>
